<svg width="120" height="39" viewBox="0 0 120 39" fill="none" xmlns="http://www.w3.org/2000/svg">
<path d="M32.6595 4.8C33.4862 4.96 34.0995 5.24 34.4995 5.64C34.9262 6.04 35.1395 6.50667 35.1395 7.04C35.1395 7.92 34.8862 8.56 34.3795 8.96C33.8995 9.36 33.1262 9.52 32.0595 9.44C29.6595 9.25333 27.7795 9.13333 26.4195 9.08C25.0862 9 23.3262 8.94667 21.1395 8.92C20.1529 13.8267 19.2462 18.76 18.4195 23.72C18.1262 25.5333 17.8195 27.64 17.4995 30.04C17.1795 32.4133 16.9662 34.3333 16.8595 35.8C16.8062 36.5733 16.4862 37.1733 15.8995 37.6C15.3129 38 14.6062 38.2 13.7795 38.2C12.8995 38.2 12.2195 37.9867 11.7395 37.56C11.2595 37.1333 11.0195 36.5733 11.0195 35.88C11.0195 35.24 11.1129 34.1867 11.2995 32.72C11.5129 31.2267 11.7529 29.6667 12.0195 28.04C12.3129 26.4133 12.5395 25 12.6995 23.8C12.9929 21.7733 13.3262 19.76 13.6995 17.76C14.0729 15.76 14.4462 13.8667 14.8195 12.08C14.8995 11.68 14.9929 11.2267 15.0995 10.72C15.2062 10.1867 15.3262 9.6 15.4595 8.96C12.8462 9.04 10.7929 9.25333 9.29953 9.6C7.8062 9.94667 6.73953 10.44 6.09953 11.08C5.4862 11.6933 5.17953 12.4933 5.17953 13.48C5.17953 14.3867 5.4462 15.2533 5.97953 16.08C6.0862 16.2667 6.13953 16.4667 6.13953 16.68C6.13953 17.1867 5.83286 17.6667 5.21953 18.12C4.63286 18.5467 4.01953 18.76 3.37953 18.76C2.9262 18.76 2.55286 18.6267 2.25953 18.36C1.7262 17.9067 1.2862 17.2667 0.939531 16.44C0.592865 15.5867 0.419531 14.6267 0.419531 13.56C0.419531 11.2933 1.15286 9.48 2.61953 8.12C4.11286 6.73333 6.3662 5.72 9.37953 5.08C12.4195 4.44 16.3129 4.12 21.0595 4.12C23.9929 4.12 26.3262 4.17333 28.0595 4.28C29.8195 4.38666 31.3529 4.56 32.6595 4.8ZM30.4592 38.2C29.4459 38.2 28.7259 37.6667 28.2992 36.6C27.8992 35.5333 27.6992 33.8267 27.6992 31.48C27.6992 28.0133 28.1926 24.72 29.1792 21.6C29.4192 20.8267 29.8059 20.2667 30.3392 19.92C30.8992 19.5467 31.6726 19.36 32.6592 19.36C33.1926 19.36 33.5659 19.4267 33.7792 19.56C33.9926 19.6933 34.0992 19.9467 34.0992 20.32C34.0992 20.7467 33.8992 21.7067 33.4992 23.2C33.2326 24.2667 33.0192 25.2 32.8592 26C32.6992 26.8 32.5659 27.7867 32.4592 28.96C33.3392 26.6667 34.3259 24.8 35.4192 23.36C36.5126 21.92 37.5792 20.8933 38.6192 20.28C39.6859 19.6667 40.6592 19.36 41.5392 19.36C43.2726 19.36 44.1392 20.2267 44.1392 21.96C44.1392 22.3067 44.0192 23.1467 43.7792 24.48C43.5659 25.5467 43.4592 26.2133 43.4592 26.48C43.4592 27.4133 43.7926 27.88 44.4592 27.88C45.2059 27.88 46.1659 27.2933 47.3392 26.12C47.6859 25.7733 48.0459 25.6 48.4192 25.6C48.7659 25.6 49.0326 25.76 49.2192 26.08C49.4326 26.3733 49.5392 26.7733 49.5392 27.28C49.5392 28.2667 49.2726 29.04 48.7392 29.6C47.9926 30.3733 47.1126 31.04 46.0992 31.6C45.1126 32.1333 44.0592 32.4 42.9392 32.4C41.5259 32.4 40.4459 32.04 39.6992 31.32C38.9792 30.6 38.6192 29.6267 38.6192 28.4C38.6192 28 38.6592 27.6 38.7392 27.2C38.7926 26.6667 38.8192 26.3067 38.8192 26.12C38.8192 25.6933 38.6726 25.48 38.3792 25.48C37.9792 25.48 37.4459 25.9333 36.7792 26.84C36.1392 27.72 35.4992 28.8933 34.8592 30.36C34.2192 31.8267 33.6992 33.3733 33.2992 35C33.0059 36.2533 32.6592 37.1067 32.2592 37.56C31.8859 37.9867 31.2859 38.2 30.4592 38.2ZM51.0623 16.72C49.9423 16.72 49.1023 16.4667 48.5423 15.96C47.9823 15.4267 47.7023 14.6933 47.7023 13.76C47.7023 12.8267 48.0623 12.0533 48.7823 11.44C49.529 10.8 50.449 10.48 51.5423 10.48C52.529 10.48 53.329 10.72 53.9423 11.2C54.5557 11.68 54.8623 12.36 54.8623 13.24C54.8623 14.3067 54.5157 15.16 53.8223 15.8C53.129 16.4133 52.209 16.72 51.0623 16.72ZM50.7423 38.2C49.009 38.2 47.7423 37.5867 46.9423 36.36C46.169 35.1333 45.7823 33.5067 45.7823 31.48C45.7823 30.28 45.929 28.7467 46.2223 26.88C46.5423 24.9867 46.9423 23.2267 47.4223 21.6C47.6623 20.7467 47.9823 20.16 48.3823 19.84C48.7823 19.52 49.4223 19.36 50.3023 19.36C51.6623 19.36 52.3423 19.8133 52.3423 20.72C52.3423 21.3867 52.089 22.9333 51.5823 25.36C50.9423 28.2933 50.6223 30.28 50.6223 31.32C50.6223 32.12 50.729 32.7333 50.9423 33.16C51.1557 33.5867 51.5157 33.8 52.0223 33.8C52.5023 33.8 53.1023 33.4667 53.8223 32.8C54.5423 32.1333 55.5023 31.08 56.7023 29.64C57.0223 29.2667 57.3823 29.08 57.7823 29.08C58.129 29.08 58.3957 29.24 58.5823 29.56C58.7957 29.88 58.9023 30.32 58.9023 30.88C58.9023 31.9467 58.649 32.7733 58.1423 33.36C55.5023 36.5867 53.0357 38.2 50.7423 38.2ZM63.3061 38.2C60.6928 38.2 58.6528 37.4667 57.1861 36C55.7461 34.5067 55.0261 32.5467 55.0261 30.12C55.0261 27.96 55.4528 26.0667 56.3061 24.44C57.1594 22.8133 58.2661 21.56 59.6261 20.68C60.9861 19.8 62.4128 19.36 63.9061 19.36C65.3728 19.36 66.5061 19.8 67.3061 20.68C68.1328 21.5333 68.5461 22.64 68.5461 24C68.5461 25.12 68.2928 26.0667 67.7861 26.84C67.3061 27.6133 66.6661 28 65.8661 28C65.3594 28 64.9461 27.88 64.6261 27.64C64.3328 27.4 64.1861 27.0667 64.1861 26.64C64.1861 26.4533 64.2128 26.24 64.2661 26C64.3194 25.76 64.3594 25.5867 64.3861 25.48C64.5194 25.08 64.5861 24.7067 64.5861 24.36C64.5861 24.0133 64.4928 23.7467 64.3061 23.56C64.1461 23.3733 63.9061 23.28 63.5861 23.28C62.9728 23.28 62.3994 23.56 61.8661 24.12C61.3328 24.6533 60.9061 25.3867 60.5861 26.32C60.2661 27.2533 60.1061 28.28 60.1061 29.4C60.1061 32.4933 61.4528 34.04 64.1461 34.04C65.2394 34.04 66.4128 33.68 67.6661 32.96C68.9461 32.2133 70.1994 31.1067 71.4261 29.64C71.7461 29.2667 72.1061 29.08 72.5061 29.08C72.8528 29.08 73.1194 29.24 73.3061 29.56C73.5194 29.88 73.6261 30.32 73.6261 30.88C73.6261 31.8933 73.3728 32.72 72.8661 33.36C71.6128 34.9067 70.1061 36.1067 68.3461 36.96C66.6128 37.7867 64.9328 38.2 63.3061 38.2ZM93.5127 29.08C93.8593 29.08 94.126 29.24 94.3127 29.56C94.526 29.88 94.6327 30.32 94.6327 30.88C94.6327 31.9467 94.3793 32.7733 93.8727 33.36C92.6727 34.8267 91.4593 36 90.2327 36.88C89.006 37.76 87.5527 38.2 85.8727 38.2C83.8193 38.2 82.166 37.6133 80.9127 36.44C79.6593 35.2667 79.0327 33.7067 79.0327 31.76C79.0327 30.72 79.566 29.9733 80.6327 29.52C81.806 29.0133 82.646 28.48 83.1527 27.92C83.6593 27.3333 83.9127 26.6267 83.9127 25.8C83.9127 25.32 83.806 24.96 83.5927 24.72C83.406 24.48 83.166 24.36 82.8727 24.36C82.1527 24.36 81.3527 24.88 80.4727 25.92C79.6193 26.96 78.8193 28.3067 78.0727 29.96C77.326 31.5867 76.7393 33.2667 76.3127 35C76.0193 36.2533 75.6727 37.1067 75.2727 37.56C74.8993 37.9867 74.2993 38.2 73.4727 38.2C72.646 38.2 72.0327 37.9067 71.6327 37.32C71.2593 36.7067 71.006 35.7733 70.8727 34.52C70.7393 33.2667 70.6727 31.4267 70.6727 29C70.6727 24.8933 71.086 20.6133 71.9127 16.16C72.766 11.7067 74.006 7.97333 75.6327 4.96C77.286 1.92 79.2593 0.399998 81.5527 0.399998C82.7793 0.399998 83.766 0.933331 84.5127 2C85.286 3.04 85.6727 4.4 85.6727 6.08C85.6727 8.77333 84.886 11.5733 83.3127 14.48C81.7393 17.36 79.1793 20.7333 75.6327 24.6C75.5527 25.9867 75.5127 27.4133 75.5127 28.88C76.7927 25.5467 78.2593 23.1333 79.9127 21.64C81.566 20.12 83.1127 19.36 84.5527 19.36C85.886 19.36 86.9527 19.8133 87.7527 20.72C88.5793 21.6267 88.9927 22.7467 88.9927 24.08C88.9927 25.5467 88.6193 26.8933 87.8727 28.12C87.126 29.3467 85.846 30.44 84.0327 31.4C84.1393 32.12 84.4593 32.7067 84.9927 33.16C85.5527 33.5867 86.2193 33.8 86.9927 33.8C87.8193 33.8 88.6193 33.48 89.3927 32.84C90.166 32.2 91.1793 31.1333 92.4327 29.64C92.7527 29.2667 93.1127 29.08 93.5127 29.08ZM80.7127 4.36C80.2327 4.36 79.6993 5.05333 79.1127 6.44C78.526 7.8 77.9527 9.65333 77.3927 12C76.8593 14.32 76.4193 16.8533 76.0727 19.6C77.726 17.6533 79.086 15.5333 80.1527 13.24C81.246 10.9467 81.7927 8.86667 81.7927 7C81.7927 6.14667 81.6993 5.49333 81.5127 5.04C81.326 4.58667 81.0593 4.36 80.7127 4.36ZM106.568 29.08C106.915 29.08 107.182 29.24 107.368 29.56C107.582 29.88 107.688 30.32 107.688 30.88C107.688 31.9467 107.435 32.7733 106.928 33.36C105.782 34.7733 104.528 35.9333 103.168 36.84C101.835 37.7467 100.315 38.2 98.6083 38.2C96.2616 38.2 94.5149 37.1333 93.3683 35C92.2483 32.8667 91.6883 30.1067 91.6883 26.72C91.6883 23.4667 92.1016 19.76 92.9283 15.6C93.7816 11.44 95.0216 7.86667 96.6483 4.88C98.3016 1.89333 100.262 0.399998 102.528 0.399998C103.808 0.399998 104.808 0.999998 105.528 2.2C106.275 3.37333 106.648 5.06667 106.648 7.28C106.648 10.4533 105.768 14.1333 104.008 18.32C102.248 22.5067 99.8616 26.6533 96.8483 30.76C97.0349 31.8533 97.3416 32.64 97.7683 33.12C98.1949 33.5733 98.7549 33.8 99.4483 33.8C100.542 33.8 101.502 33.4933 102.328 32.88C103.155 32.24 104.208 31.16 105.488 29.64C105.808 29.2667 106.168 29.08 106.568 29.08ZM101.648 4.36C101.035 4.36 100.342 5.46667 99.5683 7.68C98.7949 9.89333 98.1149 12.64 97.5283 15.92C96.9416 19.2 96.6216 22.3467 96.5683 25.36C98.4616 22.24 99.9683 19.12 101.088 16C102.208 12.8533 102.768 9.98666 102.768 7.4C102.768 5.37333 102.395 4.36 101.648 4.36ZM118.775 30.28C119.122 30.28 119.388 30.44 119.575 30.76C119.788 31.08 119.895 31.52 119.895 32.08C119.895 33.04 119.668 33.8667 119.215 34.56C118.468 35.7067 117.482 36.6 116.255 37.24C115.055 37.88 113.615 38.2 111.935 38.2C109.375 38.2 107.388 37.44 105.975 35.92C104.562 34.3733 103.855 32.2933 103.855 29.68C103.855 27.84 104.242 26.1333 105.015 24.56C105.788 22.96 106.855 21.6933 108.215 20.76C109.602 19.8267 111.162 19.36 112.895 19.36C114.442 19.36 115.682 19.8267 116.615 20.76C117.548 21.6667 118.015 22.9067 118.015 24.48C118.015 26.32 117.348 27.9067 116.015 29.24C114.708 30.5467 112.468 31.5867 109.295 32.36C109.935 33.5867 111.015 34.2 112.535 34.2C113.628 34.2 114.522 33.9467 115.215 33.44C115.935 32.9333 116.762 32.08 117.695 30.88C118.015 30.48 118.375 30.28 118.775 30.28ZM112.215 23.28C111.228 23.28 110.388 23.8533 109.695 25C109.028 26.1467 108.695 27.5333 108.695 29.16V29.24C110.268 28.8667 111.508 28.3067 112.415 27.56C113.322 26.8133 113.775 25.9467 113.775 24.96C113.775 24.4533 113.628 24.0533 113.335 23.76C113.068 23.44 112.695 23.28 112.215 23.28Z" fill="#9747FF"/>
</svg>
